<mxfile host="app.diagrams.net" agent="Mozilla/5.0 (Windows NT 10.0; Win64; x64) AppleWebKit/537.36 (KHTML, like Gecko) Chrome/134.0.0.0 Safari/537.36" version="26.1.3">
  <diagram name="Page-1" id="ZSVnLYaPisJ-L3LaeQyS">
    <mxGraphModel dx="662" dy="377" grid="1" gridSize="10" guides="1" tooltips="1" connect="1" arrows="1" fold="1" page="1" pageScale="1" pageWidth="827" pageHeight="1169" math="0" shadow="0">
      <root>
        <mxCell id="0" />
        <mxCell id="1" parent="0" />
        <mxCell id="7P4M7pMutVrMYfom8Spt-1" value="" style="ellipse;whiteSpace=wrap;html=1;aspect=fixed;" vertex="1" parent="1">
          <mxGeometry x="310" y="130" width="100" height="100" as="geometry" />
        </mxCell>
        <mxCell id="7P4M7pMutVrMYfom8Spt-2" value="" style="shape=cylinder3;whiteSpace=wrap;html=1;boundedLbl=1;backgroundOutline=1;size=15;" vertex="1" parent="1">
          <mxGeometry x="340" y="146.67" width="40" height="53.33" as="geometry" />
        </mxCell>
        <mxCell id="7P4M7pMutVrMYfom8Spt-4" value="Server" style="text;html=1;align=center;verticalAlign=middle;whiteSpace=wrap;rounded=0;" vertex="1" parent="1">
          <mxGeometry x="330" y="200" width="60" height="30" as="geometry" />
        </mxCell>
        <mxCell id="7P4M7pMutVrMYfom8Spt-15" value="" style="ellipse;whiteSpace=wrap;html=1;aspect=fixed;" vertex="1" parent="1">
          <mxGeometry x="440" y="180" width="80" height="80" as="geometry" />
        </mxCell>
        <mxCell id="7P4M7pMutVrMYfom8Spt-16" value="Bucket" style="text;html=1;align=center;verticalAlign=middle;whiteSpace=wrap;rounded=0;" vertex="1" parent="1">
          <mxGeometry x="450" y="230" width="60" height="30" as="geometry" />
        </mxCell>
        <mxCell id="7P4M7pMutVrMYfom8Spt-17" value="" style="shape=cylinder3;whiteSpace=wrap;html=1;boundedLbl=1;backgroundOutline=1;size=15;" vertex="1" parent="1">
          <mxGeometry x="460" y="180" width="40" height="53.33" as="geometry" />
        </mxCell>
        <mxCell id="7P4M7pMutVrMYfom8Spt-18" value="" style="ellipse;whiteSpace=wrap;html=1;aspect=fixed;" vertex="1" parent="1">
          <mxGeometry x="200" y="180" width="80" height="80" as="geometry" />
        </mxCell>
        <mxCell id="7P4M7pMutVrMYfom8Spt-19" value="Bucket" style="text;html=1;align=center;verticalAlign=middle;whiteSpace=wrap;rounded=0;" vertex="1" parent="1">
          <mxGeometry x="210" y="230" width="60" height="30" as="geometry" />
        </mxCell>
        <mxCell id="7P4M7pMutVrMYfom8Spt-20" value="" style="shape=cylinder3;whiteSpace=wrap;html=1;boundedLbl=1;backgroundOutline=1;size=15;" vertex="1" parent="1">
          <mxGeometry x="220" y="180" width="40" height="53.33" as="geometry" />
        </mxCell>
        <mxCell id="7P4M7pMutVrMYfom8Spt-21" value="" style="ellipse;whiteSpace=wrap;html=1;aspect=fixed;" vertex="1" parent="1">
          <mxGeometry x="440" y="80" width="80" height="80" as="geometry" />
        </mxCell>
        <mxCell id="7P4M7pMutVrMYfom8Spt-22" value="Bucket" style="text;html=1;align=center;verticalAlign=middle;whiteSpace=wrap;rounded=0;" vertex="1" parent="1">
          <mxGeometry x="450" y="130" width="60" height="30" as="geometry" />
        </mxCell>
        <mxCell id="7P4M7pMutVrMYfom8Spt-23" value="" style="shape=cylinder3;whiteSpace=wrap;html=1;boundedLbl=1;backgroundOutline=1;size=15;" vertex="1" parent="1">
          <mxGeometry x="460" y="80" width="40" height="53.33" as="geometry" />
        </mxCell>
        <mxCell id="7P4M7pMutVrMYfom8Spt-24" value="" style="ellipse;whiteSpace=wrap;html=1;aspect=fixed;" vertex="1" parent="1">
          <mxGeometry x="200" y="80" width="80" height="80" as="geometry" />
        </mxCell>
        <mxCell id="7P4M7pMutVrMYfom8Spt-25" value="Bucket" style="text;html=1;align=center;verticalAlign=middle;whiteSpace=wrap;rounded=0;" vertex="1" parent="1">
          <mxGeometry x="210" y="130" width="60" height="30" as="geometry" />
        </mxCell>
        <mxCell id="7P4M7pMutVrMYfom8Spt-26" value="" style="shape=cylinder3;whiteSpace=wrap;html=1;boundedLbl=1;backgroundOutline=1;size=15;" vertex="1" parent="1">
          <mxGeometry x="220" y="80" width="40" height="53.33" as="geometry" />
        </mxCell>
        <mxCell id="7P4M7pMutVrMYfom8Spt-45" style="edgeStyle=orthogonalEdgeStyle;rounded=0;orthogonalLoop=1;jettySize=auto;html=1;" edge="1" parent="1" source="7P4M7pMutVrMYfom8Spt-27" target="7P4M7pMutVrMYfom8Spt-32">
          <mxGeometry relative="1" as="geometry">
            <mxPoint x="540" y="290" as="targetPoint" />
            <Array as="points">
              <mxPoint x="530" y="60" />
              <mxPoint x="530" y="300" />
            </Array>
          </mxGeometry>
        </mxCell>
        <mxCell id="7P4M7pMutVrMYfom8Spt-27" value="" style="ellipse;whiteSpace=wrap;html=1;aspect=fixed;" vertex="1" parent="1">
          <mxGeometry x="320" y="20" width="80" height="80" as="geometry" />
        </mxCell>
        <mxCell id="7P4M7pMutVrMYfom8Spt-28" value="Bucket" style="text;html=1;align=center;verticalAlign=middle;whiteSpace=wrap;rounded=0;" vertex="1" parent="1">
          <mxGeometry x="330" y="70" width="60" height="30" as="geometry" />
        </mxCell>
        <mxCell id="7P4M7pMutVrMYfom8Spt-29" value="" style="shape=cylinder3;whiteSpace=wrap;html=1;boundedLbl=1;backgroundOutline=1;size=15;" vertex="1" parent="1">
          <mxGeometry x="340" y="20" width="40" height="53.33" as="geometry" />
        </mxCell>
        <mxCell id="7P4M7pMutVrMYfom8Spt-30" value="" style="endArrow=classic;startArrow=none;html=1;rounded=0;startFill=0;endFill=1;" edge="1" parent="1" source="7P4M7pMutVrMYfom8Spt-1" target="7P4M7pMutVrMYfom8Spt-18">
          <mxGeometry width="50" height="50" relative="1" as="geometry">
            <mxPoint x="326" y="331" as="sourcePoint" />
            <mxPoint x="355" y="238" as="targetPoint" />
          </mxGeometry>
        </mxCell>
        <mxCell id="7P4M7pMutVrMYfom8Spt-31" value="" style="endArrow=classic;startArrow=none;html=1;rounded=0;startFill=0;endFill=1;" edge="1" parent="1" source="7P4M7pMutVrMYfom8Spt-18" target="7P4M7pMutVrMYfom8Spt-32">
          <mxGeometry width="50" height="50" relative="1" as="geometry">
            <mxPoint x="323" y="206" as="sourcePoint" />
            <mxPoint x="304.0799999999999" y="321.43999999999994" as="targetPoint" />
          </mxGeometry>
        </mxCell>
        <mxCell id="7P4M7pMutVrMYfom8Spt-32" value="" style="rounded=0;whiteSpace=wrap;html=1;" vertex="1" parent="1">
          <mxGeometry x="300" y="270" width="120" height="60" as="geometry" />
        </mxCell>
        <mxCell id="7P4M7pMutVrMYfom8Spt-33" value="Clients" style="text;html=1;align=center;verticalAlign=middle;whiteSpace=wrap;rounded=0;" vertex="1" parent="1">
          <mxGeometry x="330" y="285" width="60" height="30" as="geometry" />
        </mxCell>
        <mxCell id="7P4M7pMutVrMYfom8Spt-34" value="" style="endArrow=classic;startArrow=none;html=1;rounded=0;startFill=0;endFill=1;" edge="1" parent="1" source="7P4M7pMutVrMYfom8Spt-32" target="7P4M7pMutVrMYfom8Spt-1">
          <mxGeometry width="50" height="50" relative="1" as="geometry">
            <mxPoint x="283" y="252" as="sourcePoint" />
            <mxPoint x="325" y="280" as="targetPoint" />
          </mxGeometry>
        </mxCell>
        <mxCell id="7P4M7pMutVrMYfom8Spt-35" value="" style="endArrow=classic;startArrow=none;html=1;rounded=0;startFill=0;endFill=1;" edge="1" parent="1" source="7P4M7pMutVrMYfom8Spt-1" target="7P4M7pMutVrMYfom8Spt-15">
          <mxGeometry width="50" height="50" relative="1" as="geometry">
            <mxPoint x="370" y="280" as="sourcePoint" />
            <mxPoint x="370" y="240" as="targetPoint" />
          </mxGeometry>
        </mxCell>
        <mxCell id="7P4M7pMutVrMYfom8Spt-36" value="" style="endArrow=classic;startArrow=none;html=1;rounded=0;startFill=0;endFill=1;" edge="1" parent="1" source="7P4M7pMutVrMYfom8Spt-1" target="7P4M7pMutVrMYfom8Spt-21">
          <mxGeometry width="50" height="50" relative="1" as="geometry">
            <mxPoint x="418" y="206" as="sourcePoint" />
            <mxPoint x="452" y="217" as="targetPoint" />
          </mxGeometry>
        </mxCell>
        <mxCell id="7P4M7pMutVrMYfom8Spt-37" value="" style="endArrow=classic;startArrow=none;html=1;rounded=0;startFill=0;endFill=1;" edge="1" parent="1" source="7P4M7pMutVrMYfom8Spt-15" target="7P4M7pMutVrMYfom8Spt-32">
          <mxGeometry width="50" height="50" relative="1" as="geometry">
            <mxPoint x="415" y="168" as="sourcePoint" />
            <mxPoint x="454" y="148" as="targetPoint" />
          </mxGeometry>
        </mxCell>
        <mxCell id="7P4M7pMutVrMYfom8Spt-38" value="" style="endArrow=classic;startArrow=none;html=1;rounded=0;startFill=0;endFill=1;" edge="1" parent="1" source="7P4M7pMutVrMYfom8Spt-21" target="7P4M7pMutVrMYfom8Spt-32">
          <mxGeometry width="50" height="50" relative="1" as="geometry">
            <mxPoint x="457" y="252" as="sourcePoint" />
            <mxPoint x="415" y="280" as="targetPoint" />
          </mxGeometry>
        </mxCell>
        <mxCell id="7P4M7pMutVrMYfom8Spt-39" value="" style="endArrow=classic;startArrow=none;html=1;rounded=0;startFill=0;endFill=1;" edge="1" parent="1" source="7P4M7pMutVrMYfom8Spt-24" target="7P4M7pMutVrMYfom8Spt-32">
          <mxGeometry width="50" height="50" relative="1" as="geometry">
            <mxPoint x="468" y="163" as="sourcePoint" />
            <mxPoint x="390" y="280" as="targetPoint" />
          </mxGeometry>
        </mxCell>
        <mxCell id="7P4M7pMutVrMYfom8Spt-40" value="" style="endArrow=classic;startArrow=none;html=1;rounded=0;startFill=0;endFill=1;" edge="1" parent="1" source="7P4M7pMutVrMYfom8Spt-1" target="7P4M7pMutVrMYfom8Spt-27">
          <mxGeometry width="50" height="50" relative="1" as="geometry">
            <mxPoint x="272" y="163" as="sourcePoint" />
            <mxPoint x="350" y="280" as="targetPoint" />
          </mxGeometry>
        </mxCell>
        <mxCell id="7P4M7pMutVrMYfom8Spt-43" value="" style="endArrow=classic;startArrow=none;html=1;rounded=0;startFill=0;endFill=1;" edge="1" parent="1" source="7P4M7pMutVrMYfom8Spt-1" target="7P4M7pMutVrMYfom8Spt-24">
          <mxGeometry width="50" height="50" relative="1" as="geometry">
            <mxPoint x="322" y="206" as="sourcePoint" />
            <mxPoint x="288" y="217" as="targetPoint" />
          </mxGeometry>
        </mxCell>
      </root>
    </mxGraphModel>
  </diagram>
</mxfile>
